<svg width="1600" height="405" fill="none" xmlns="http://www.w3.org/2000/svg"><g clip-path="url(#prefix__clip0)"><path fill="#0069FF" d="M0 0h1600v405H0z"/><path fill="url(#prefix__paint0_linear)" d="M0 0h1600v405H0z"/><g opacity=".5" fill="#0069FF"><path d="M287.612 36.038h67.846a4 4 0 004-4V4a4 4 0 00-4-4H219.766a4 4 0 00-4 4v28.038a4 4 0 004 4h67.846zM539.416 36.038h31.808a4 4 0 004-4V4a4 4 0 00-4-4h-99.883a4 4 0 00-4 4v28.038a4 4 0 004 4H539.416zM643.299 0h-28.037a4 4 0 00-4 4v28.038a4 4 0 004 4h28.037a4 4 0 004-4V4a4 4 0 00-4-4zM894.874 0h-28.038a4 4 0 00-4 4v28.038a4 4 0 004 4h28.038a4 4 0 004-4V4a4 4 0 00-4-4zM1110.64 36.038a4 4 0 004-4V4a4 4 0 00-4-4H1046.79c-2.2 0-4 1.79-4 4v28.038c0 2.209 1.8 4 4 4H1110.64zM1186.49 0h-31.81a4 4 0 00-4 4v28.038a4 4 0 004 4h63.84a4 4 0 004-4V4a4 4 0 00-4-4h-32.03zM143.921 75.846a4 4 0 014-4h27.808a4 4 0 004-4V40.038a4 4 0 00-4-4H75.846a4 4 0 00-4 4v27.808a4 4 0 01-4 4H40.038a4 4 0 01-4-4V40.038a4 4 0 014-4h27.808a4 4 0 004-4V4a4 4 0 00-4-4H4a4 4 0 00-4 4V103.883a4 4 0 004 4h28.038a4 4 0 014 4v28.038a4 4 0 01-4 4H4a4 4 0 00-4 4v27.808a4 4 0 004 4h63.846a4 4 0 004-4v-27.808a4 4 0 014-4h28.037a4 4 0 014 4v27.808a4 4 0 004 4h28.038a4 4 0 004-4v-27.808a4 4 0 014-4h27.808a4 4 0 004-4v-28.038a4 4 0 00-4-4h-27.808a4 4 0 01-4-4V75.846zM391.495 179.729h-28.037a4 4 0 00-4 4v28.038a4 4 0 004 4h28.037a4 4 0 004-4v-28.038a4 4 0 00-4-4zM934.911 215.767h31.808a4 4 0 004-4v-28.038a4 4 0 00-4-4h-63.845a4 4 0 00-4 4v28.038a4 4 0 004 4h32.037zM175.958 215.766h-28.037a4 4 0 00-4 4v28.038a4 4 0 004 4h28.037a4 4 0 004-4v-28.038a4 4 0 00-4-4zM499.379 251.574a4 4 0 004-4v-27.808a4 4 0 00-4-4h-63.846a4 4 0 00-4 4v27.808a4 4 0 004 4h63.846zM862.836 215.767H758.953a4 4 0 01-4-4v-28.038a4 4 0 00-4-4h-27.808a4 4 0 00-4 4v28.038a4 4 0 01-4 4h-63.846a4 4 0 00-4 4v27.808a4 4 0 004 4h243.575a4 4 0 004-4v-27.808a4 4 0 00-4-4h-32.038zM535.416 251.574h-28.037a4 4 0 00-4 4v28.038a4 4 0 004 4h28.037a4 4 0 004-4v-28.038a4 4 0 00-4-4zM103.883 287.612H75.846a4 4 0 00-4 4v28.038a4 4 0 004 4h28.037a4 4 0 004-4v-28.038a4 4 0 00-4-4zM435.533 287.612a4 4 0 00-4 4v28.038a4 4 0 004 4h63.846a4 4 0 004-4v-28.038a4 4 0 00-4-4h-63.846zM786.991 323.65a4 4 0 004-4v-28.038a4 4 0 00-4-4h-63.846a4 4 0 00-4 4v28.038a4 4 0 004 4h63.846zM970.719 291.612a4 4 0 014-4h28.041a4 4 0 004-4v-28.038a4 4 0 00-4-4h-99.886a4 4 0 00-4 4v28.038a4 4 0 004 4h28.037a4 4 0 014 4v28.038a4 4 0 004 4h27.808a4 4 0 004-4v-28.038zM395.495 323.65h-32.037a4 4 0 01-4-4v-28.038a4 4 0 014-4H427.533a4 4 0 004-4v-28.038a4 4 0 00-4-4H327.65a4 4 0 01-4-4v-27.808a4 4 0 00-4-4H219.767a4 4 0 00-4 4v27.808c0 2.21 1.79 4 4 4h63.845a4 4 0 014 4v28.038a4 4 0 004 4h28.038a4 4 0 014 4v28.038a4 4 0 01-4 4h-28.038a4 4 0 01-4-4v-28.038a4 4 0 00-4-4H147.921a4 4 0 00-4 4v28.038a4 4 0 004 4h99.654a4 4 0 014 4v27.808a4 4 0 004 4h28.037a4 4 0 014 4v28.037a4 4 0 004 4h28.038a4 4 0 004-4v-28.037a4 4 0 014-4h99.883a4 4 0 004-4V327.65a4 4 0 00-4-4h-32.038zM898.874 359.458h32.037a4 4 0 004-4V327.65a4 4 0 00-4-4H831.028a4 4 0 00-4 4v27.808a4 4 0 004 4h67.846z"/><path d="M247.804 359.458h-28.038a4 4 0 00-4 4v28.037a4 4 0 004 4h28.038a4 4 0 004-4v-28.037a4 4 0 00-4-4zM32.038 359.458H4a4 4 0 00-4 4v28.037a4 4 0 004 4h28.038a4 4 0 004-4v-28.037a4 4 0 00-4-4zM175.958 359.458h-28.037a4 4 0 00-4 4v28.037a4 4 0 004 4h28.037a4 4 0 004-4v-28.037a4 4 0 00-4-4zM790.991 359.458h-67.846a4 4 0 01-4-4V327.65a4 4 0 00-4-4h-63.846a4 4 0 01-4-4v-28.038a4 4 0 00-4-4h-28.037a4 4 0 00-4 4v28.038a4 4 0 01-4 4h-28.038a4 4 0 00-4 4v27.808a4 4 0 01-4 4H435.533a4 4 0 00-4 4v28.038a4 4 0 004 4h63.846a4 4 0 014 4v28.037a4 4 0 01-4 4H327.65a4 4 0 00-4 4v27.808a4 4 0 004 4H499.379a4 4 0 014 4v28.038a4 4 0 004 4h28.037a4 4 0 004-4v-28.038a4 4 0 014-4H643.299a4 4 0 004-4v-27.808a4 4 0 014-4h27.808a4 4 0 004-4v-28.037a4 4 0 014-4h135.921a4 4 0 004-4v-28.038a4 4 0 00-4-4h-32.037z"/><path d="M2193.24 719.145v-32.038a4 4 0 00-4-4h-64.07c-2.21 0-4-1.79-4-4v-27.808a4 4 0 00-4-4h-136.15a4 4 0 01-4-4v-28.037a4 4 0 014-4h28.03a4 4 0 004-4v-28.038a4 4 0 00-4-4H1872.9c-2.2 0-4-1.791-4-4v-27.808a4 4 0 00-4-4h-64.07a4 4 0 01-4-4v-28.037c0-2.21 1.79-4 4-4h64.07c2.21 0 4 1.79 4 4v28.037c0 2.209 1.8 4 4 4h136.15a4 4 0 014 4v28.038c0 2.209 1.8 4 4 4h28.04a4 4 0 014 4v28.037a4 4 0 004 4h28.04a4 4 0 004-4v-28.037a4 4 0 014-4h28.04a4 4 0 004-4v-28.038a4 4 0 00-4-4h-28.04a4 4 0 01-4-4v-28.037c0-2.21-1.79-4-4-4h-28.04a4 4 0 01-4-4v-28.038a4 4 0 00-4-4H1908.94a4 4 0 01-4-4v-27.808a4 4 0 014-4h136.15a4 4 0 014 4v28.037c0 2.21 1.79 4 4 4h100.12c2.2 0 4 1.791 4 4v28.038c0 2.209-1.8 4-4 4h-28.04a4 4 0 00-4 4v27.808a4 4 0 004 4h64.07a4 4 0 014 4v28.038a4 4 0 004 4h28.04a4 4 0 004-4v-28.038a4 4 0 014-4h28.04a4 4 0 004-4v-28.037c0-2.21-1.79-4-4-4h-28.04a4 4 0 01-4-4v-28.038a4 4 0 014-4h28.04a4 4 0 004-4v-27.808a4 4 0 00-4-4h-100.11a4 4 0 01-4-4v-28.038c0-2.209-1.8-4-4-4h-100.12a4 4 0 01-4-4v-28.037a4 4 0 00-4-4h-28.04c-2.2 0-4-1.791-4-4V327.65c0-2.209 1.8-4 4-4h100.12a4 4 0 014 4v28.037a4 4 0 004 4h28.04c2.2 0 4-1.791 4-4V327.65a4 4 0 014-4H2261.32a4 4 0 004-4v-28.038a4 4 0 00-4-4h-64.08a4 4 0 01-4-4v-28.038a4 4 0 014-4h64.08c2.21 0 4-1.79 4-4v-27.808a4 4 0 014-4h28.04c2.2 0 4-1.79 4-4v-28.037c0-2.209-1.8-4-4-4h-100.12a4 4 0 00-4 4v28.037c0 2.21-1.79 4-4 4h-28.03a4 4 0 00-4 4v28.038c0 2.209-1.8 4-4 4h-136.16c-2.2 0-4-1.791-4-4v-28.038c0-2.209 1.8-4 4-4h100.12c2.21 0 4-1.79 4-4v-28.037a4 4 0 014-4h64.07a4 4 0 004-4v-27.808a4 4 0 00-4-4h-64.07a4 4 0 01-4-4v-28.038a4 4 0 014-4h64.07a4 4 0 014 4v28.038a4 4 0 004 4h64.08a4 4 0 004-4v-28.038a4 4 0 014-4h64.07a4 4 0 014 4v28.038a4 4 0 01-4 4h-28.03a4 4 0 00-4 4v28.037c0 2.21 1.79 4 4 4H2405.47a4 4 0 014 4v27.808c0 2.21 1.79 4 4 4h64.07c2.21 0 4-1.79 4-4v-28.037a4 4 0 014-4h64.08a4 4 0 004-4v-27.808a4 4 0 014-4h28.04a4 4 0 014 4v28.037c0 2.21 1.79 4 4 4h64.07c2.21 0 4-1.79 4-4v-28.037a4 4 0 014-4h28.04a4 4 0 004-4v-28.038a4 4 0 00-4-4h-28.04a4 4 0 01-4-4V75.846a4 4 0 00-4-4h-64.07a4 4 0 01-4-4V40.038a4 4 0 00-4-4h-100.12a4 4 0 01-4-4V4a4 4 0 00-4-4h-28.03a4 4 0 00-4 4v28.038a4 4 0 01-4 4h-64.08a4 4 0 01-4-4V4a4 4 0 00-4-4H2269.32a4 4 0 00-4 4v28.038a4 4 0 01-4 4h-28.04a4 4 0 01-4-4V4a4 4 0 00-4-4h-28.04a4 4 0 00-4 4v28.038a4 4 0 01-4 4h-28.03a4 4 0 01-4-4V4c0-2.21-1.8-4-4-4h-136.16c-2.2 0-4 1.79-4 4v28.038a4 4 0 01-4 4h-28.03a4 4 0 01-4-4V4a4 4 0 00-4-4h-208.23a4 4 0 00-4 4v28.038a4 4 0 01-4 4h-64.07a4 4 0 00-4 4v28.037a4 4 0 01-4 4h-28.04a4 4 0 01-4-4V40.038a4 4 0 014-4h28.04a4 4 0 004-4V4a4 4 0 00-4-4h-64.08a4 4 0 00-4 4v28.038a4 4 0 01-4 4h-28.04a4 4 0 01-4-4V4a4 4 0 00-4-4H1260.27a4 4 0 00-4 4v28.038c0 2.209-1.8 4-4 4h-28.04a4 4 0 00-4 4v28.037a4 4 0 01-4 4h-172.19a4 4 0 01-4-4V40.038a4 4 0 00-4-4H971.965a4 4 0 00-4 4v28.037a4 4 0 01-4 4H863.852a4 4 0 01-4-4V40.038a4 4 0 00-4-4h-28.037a4 4 0 00-4 4v28.037a4 4 0 01-4 4h-64.076a4 4 0 01-4-4V40.038a4 4 0 014-4h64.076a4 4 0 004-4V4a4 4 0 00-4-4H683.664a4 4 0 00-4 4v28.038a4 4 0 004 4h28.038a4 4 0 014 4v28.037a4 4 0 01-4 4h-28.038a4 4 0 01-4-4V40.038a4 4 0 00-4-4h-24.365a4 4 0 00-4 4v28.037a4 4 0 01-4 4H471.341a4 4 0 01-4-4V40.038a4 4 0 00-4-4h-63.846a4 4 0 00-4 4v28.037a4 4 0 01-4 4H183.729a4 4 0 00-4 4v27.808a4 4 0 004 4h28.037a4 4 0 014 4v28.038a4 4 0 004 4H319.65a4 4 0 004-4v-28.038a4 4 0 014-4H427.533a4 4 0 014 4v28.038a4 4 0 01-4 4h-28.038a4 4 0 00-4 4v28.037a4 4 0 004 4H715.374c2.21 0 4-1.79 4-4v-28.037a4 4 0 00-4-4H579.224a4 4 0 01-4-4v-28.038a4 4 0 014-4h172.188a4 4 0 014 4v28.038a4 4 0 004 4h28.038a4 4 0 014 4v28.037c0 2.21 1.79 4 4 4h100.112a4 4 0 004-4v-28.037a4 4 0 00-4-4H831.487a4 4 0 01-4-4v-28.038a4 4 0 014-4H895.562a4 4 0 014 4v28.038a4 4 0 004 4h64.076a4 4 0 004-4v-28.038a4 4 0 014-4h64.072a4 4 0 014 4v28.038a4 4 0 01-4 4h-64.072a4 4 0 00-4 4v28.037c0 2.21 1.79 4 4 4h100.112c2.21 0 4-1.79 4-4v-28.037a4 4 0 014-4h64.08c2.2 0 4-1.791 4-4v-28.038a4 4 0 014-4h64.07a4 4 0 014 4v28.038a4 4 0 01-4 4h-64.07a4 4 0 00-4 4v28.037c0 2.21-1.8 4-4 4h-64.08a4 4 0 00-4 4v27.808c0 2.21-1.79 4-4 4h-64.07a4 4 0 00-4 4v28.038a4 4 0 004 4H1147.83c2.2 0 4 1.791 4 4v28.038c0 2.209-1.8 4-4 4h-100.12c-2.21 0-4 1.79-4 4v27.808a4 4 0 01-4 4h-64.072a4 4 0 00-4 4v28.037a4 4 0 01-4 4H939.6a4 4 0 00-4 4v28.038a4 4 0 01-4 4H831.487a4 4 0 00-4 4v27.808a4 4 0 01-4 4H795.45a4 4 0 00-4 4v28.037a4 4 0 01-4 4H687.337a4 4 0 00-4 4v28.038a4 4 0 01-4 4H579.224a4 4 0 00-4 4v27.808a4 4 0 004 4h172.188a4 4 0 004-4v-28.037a4 4 0 014-4h244.268c2.2 0 4-1.791 4-4v-28.038c0-2.209-1.8-4-4-4H903.562a4 4 0 01-4-4v-27.808a4 4 0 014-4h136.148a4 4 0 004-4v-28.038a4 4 0 014-4h136.15a4 4 0 004-4v-28.037a4 4 0 014-4h172.19a4 4 0 014 4v28.037a4 4 0 01-4 4H1263.94a4 4 0 00-4 4v28.038a4 4 0 01-4 4h-100.11a4 4 0 00-4 4v28.037c0 2.21-1.8 4-4 4h-28.04a4 4 0 00-4 4v28.038a4 4 0 01-4 4h-100.11a4 4 0 00-4 4v27.808c0 2.209-1.8 4-4 4H939.6a4 4 0 00-4 4v28.038a4 4 0 01-4 4H867.525a4 4 0 00-4 4v28.037a4 4 0 01-4 4h-28.038a4 4 0 00-4 4v27.808a4 4 0 004 4H931.6a4 4 0 004-4v-28.037a4 4 0 014-4h172.19a4 4 0 004-4v-28.038a4 4 0 014-4h64.07a4 4 0 004-4v-27.808a4 4 0 014-4h28.04a4 4 0 004-4v-28.037c0-2.21 1.79-4 4-4h28.04a4 4 0 004-4v-28.038a4 4 0 014-4H1400.09a4 4 0 004-4v-27.808a4 4 0 014-4h135.92a4 4 0 004-4v-9.904a4 4 0 014-4H1579.82a4 4 0 014 4v9.904a4 4 0 01-4 4H1552.01a4 4 0 00-4 4v9.904a4 4 0 01-4 4H1516.2a4 4 0 00-4 4v9.904a4 4 0 01-4 4H1408.09a4 4 0 00-4 4v28.038a4 4 0 01-4 4h-100.11c-2.21 0-4 1.79-4 4v28.037c0 2.209-1.8 4-4 4h-64.08a4 4 0 00-4 4v28.038a4 4 0 01-4 4h-28.04a4 4 0 00-4 4v28.037a4 4 0 01-4 4h-28.03a4 4 0 00-4 4v27.808c0 2.209-1.8 4-4 4h-136.15a4 4 0 00-4 4v28.038c0 2.209-1.8 4-4 4H831.487a4 4 0 01-4-4v-28.038a4 4 0 00-4-4H795.45a4 4 0 00-4 4v28.038a4 4 0 01-4 4h-64.076a4 4 0 00-4 4v28.038a4 4 0 01-4 4H651.299a4 4 0 00-4 4v28.037a4 4 0 01-4 4H579.224a4 4 0 00-4 4v28.038a4 4 0 004 4H679.337a4 4 0 004-4v-28.038a4 4 0 014-4H823.487a4 4 0 014 4v28.038a4 4 0 004 4h28.038a4 4 0 004-4v-28.038a4 4 0 014-4h28.037a4 4 0 014 4v28.038a4 4 0 004 4h64.076a4 4 0 014 4v28.037a4 4 0 004 4h136.152a4 4 0 014 4v28.038a4 4 0 004 4h64.07a4 4 0 004-4v-28.038a4 4 0 014-4h45.94a4 4 0 004-4v-9.904c0-2.209 1.8-4 4-4H1327.32a4 4 0 014 4v9.904c0 2.209 1.8 4 4 4h28.04a4 4 0 014 4v28.038a4 4 0 01-4 4H1191.17c-2.2 0-4 1.791-4 4v28.037c0 2.21-1.79 4-4 4H1047.02a4 4 0 00-4 4V931.6a4 4 0 01-4 4h-28.03a4 4 0 00-4 4v28.038a4 4 0 01-4 4h-28.041a4 4 0 00-4 4v28.042c0 2.2 1.791 4 4 4h64.071c2.21 0 4-1.8 4-4v-28.042c0-2.21 1.79-4 4-4h100.12c2.21 0 4 1.79 4 4v28.042c0 2.2 1.79 4 4 4h28.03c2.21 0 4-1.8 4-4v-28.042c0-2.21 1.8-4 4-4h64.08c2.21 0 4 1.79 4 4v28.042c0 2.2-1.79 4-4 4h-28.04c-2.21 0-4 1.79-4 4v28.03c0 2.21 1.79 4 4 4h28.04c2.21 0 4 1.79 4 4v28.04c0 2.21 1.79 4 4 4h28.04c2.21 0 4-1.79 4-4v-28.04c0-2.21 1.79-4 4-4h28.03c2.21 0 4-1.79 4-4v-28.03c0-2.21 1.8-4 4-4h28.04c2.21 0 4-1.8 4-4v-28.042c0-2.21 1.79-4 4-4h100.12c2.2 0 4 1.79 4 4v28.042c0 2.2-1.8 4-4 4h-100.12c-2.21 0-4 1.79-4 4v28.03c0 2.21-1.79 4-4 4h-28.04c-2.2 0-4 1.79-4 4v28.04c0 2.21 1.8 4 4 4h64.08c2.21 0 4 1.79 4 4v28.04c0 2.21-1.79 4-4 4h-136.15c-2.21 0-4 1.79-4 4v28.04c0 2.2-1.79 4-4 4h-28.04c-2.21 0-4 1.79-4 4v28.03c0 2.21 1.79 4 4 4h64.08c2.21 0 4-1.79 4-4v-28.03c0-2.21 1.79-4 4-4h28.03c2.21 0 4 1.79 4 4v28.03c0 2.21 1.8 4 4 4h28.04c2.21 0 4-1.79 4-4v-28.03c0-2.21 1.79-4 4-4h136.15c2.21 0 4 1.79 4 4v28.03c0 2.21-1.79 4-4 4H1407.4c-2.21 0-4 1.79-4 4v28.04c0 2.21 1.79 4 4 4h208.23c2.2 0 4 1.79 4 4v28.04c0 2.21-1.8 4-4 4h-136.15c-2.21 0-4 1.79-4 4v28.04c0 2.21-1.8 4-4 4h-100.12c-2.21 0-4 1.79-4 4v28.03c0 2.21 1.79 4 4 4h172.19c2.21 0 4-1.79 4-4v-28.03c0-2.21 1.79-4 4-4h136.15c2.21 0 4-1.79 4-4v-28.04c0-2.21-1.79-4-4-4h-28.04c-2.21 0-4-1.79-4-4v-28.04c0-2.21 1.79-4 4-4h28.04c2.21 0 4 1.79 4 4v28.04c0 2.21 1.79 4 4 4h100.11c2.21 0 4-1.79 4-4v-28.04c0-2.21 1.79-4 4-4h64.08c2.21 0 4 1.79 4 4v28.04c0 2.21 1.79 4 4 4h28.04c2.21 0 4 1.79 4 4v28.04c0 2.21 1.79 4 4 4H2012.04c2.21 0 4-1.79 4-4v-28.04c0-2.21-1.79-4-4-4h-64.08c-2.21 0-4-1.79-4-4v-28.04c0-2.21 1.79-4 4-4H1976c2.21 0 4-1.79 4-4v-28.04c0-2.21 1.79-4 4-4h28.04c2.21 0 4-1.79 4-4v-28.03c0-2.21-1.79-4-4-4h-64.08c-2.21 0-4-1.8-4-4v-28.04c0-2.21-1.79-4-4-4h-64.07c-2.21 0-4-1.79-4-4v-28.04c0-2.21 1.79-4 4-4H2048.08c2.21 0 4-1.79 4-4v-28.04c0-2.21 1.79-4 4-4h64.07c2.21 0 4-1.79 4-4v-28.03c0-2.21-1.79-4-4-4H2020.04c-2.21 0-4-1.8-4-4v-28.042c0-2.21-1.79-4-4-4H1984c-2.21 0-4 1.79-4 4v28.042c0 2.2-1.79 4-4 4h-28.04c-2.21 0-4-1.8-4-4v-28.042c0-2.21-1.79-4-4-4H1803.81a4 4 0 01-4-4V939.6a4 4 0 014-4H2084.11a4 4 0 014 4v28.038c0 2.209 1.8 4 4 4h100.12a4 4 0 004-4V939.6a4 4 0 014-4H2300.34a4 4 0 004-4v-28.038a4 4 0 00-4-4h-172.19c-2.21 0-4-1.79-4-4v-28.037a4 4 0 00-4-4H2020.04a4 4 0 01-4-4v-28.038a4 4 0 014-4H2120.15a4 4 0 014 4v28.038a4 4 0 004 4h64.08a4 4 0 004-4v-28.038a4 4 0 00-4-4h-28.04a4 4 0 01-4-4V795.45a4 4 0 00-4-4h-28.04a4 4 0 01-4-4v-28.038a4 4 0 014-4h64.08a4 4 0 014 4v28.038a4 4 0 004 4h28.03a4 4 0 004-4v-28.038c0-2.209 1.8-4 4-4h28.04a4 4 0 004-4v-28.037c0-2.21-1.79-4-4-4h-70.83a.235.235 0 01-.23-.23zm-305.51 139.691a4 4 0 01-4 4h-9.91a4 4 0 01-4-4v-9.904a4 4 0 014-4h9.91a4 4 0 014 4v9.904zm-143.92 251.804c0 2.21-1.79 4-4 4h-9.91c-2.21 0-4-1.79-4-4v-9.9c0-2.21 1.79-4 4-4h9.91c2.21 0 4 1.79 4 4v9.9zm36.03-359.687a4 4 0 01-4 4h-9.9a4 4 0 01-4-4v-9.904a4 4 0 014-4h9.9a4 4 0 014 4v9.904zm-179.73-107.654a4 4 0 01-4 4h-9.9a4 4 0 01-4-4v-9.904a4 4 0 014-4h9.9a4 4 0 014 4v9.904zm-89.97-10.133a4 4 0 014-4h9.9a4 4 0 014 4v9.904a4 4 0 01-4 4h-9.9a4 4 0 01-4-4v-9.904zm161.82-97.75a4 4 0 01-4 4h-9.9a4 4 0 01-4-4v-9.904a4 4 0 014-4h9.9a4 4 0 014 4v9.904zm125.79-143.921a4 4 0 01-4 4h-9.91a4 4 0 01-4-4v-9.904a4 4 0 014-4h9.91a4 4 0 014 4v9.904zm-53.94-14.018c0 .063.05.114.11.114h13.79a4 4 0 014 4v9.904a4 4 0 01-4 4h-99.88a4 4 0 01-4-4v-28.037a4 4 0 014-4h64.07a4 4 0 014 4v9.904a4 4 0 004 4h13.79c.06 0 .12.051.12.115zm17.9-229.556a4 4 0 014-4h28.04a4 4 0 014 4v28.037c0 2.21-1.79 4-4 4h-28.04c-2.21 0-4-1.79-4-4v-28.037zm-323.42 107.653a4 4 0 014-4h28.04a4 4 0 014 4v28.038a4 4 0 01-4 4h-28.04a4 4 0 01-4-4v-28.038zm125.79 53.942a4 4 0 014-4h9.9a4 4 0 014 4v9.904a4 4 0 01-4 4h-9.9a4 4 0 01-4-4v-9.904zm-197.87-53.942c0-2.209 1.8-4 4-4h28.04a4 4 0 014 4v28.038a4 4 0 01-4 4h-28.04c-2.2 0-4-1.791-4-4v-28.038zm72.08 359.688a4 4 0 014-4h28.04a4 4 0 014 4v9.904a4 4 0 004 4h9.9a4 4 0 014 4v9.904a4 4 0 01-4 4h-45.94a4 4 0 01-4-4v-27.808zm49.94 211.766a4 4 0 014 4v9.904a4 4 0 01-4 4h-9.9a4 4 0 01-4-4v-9.904a4 4 0 014-4h9.9zm187.73 143.691c-2.21 0-4-1.79-4-4v-9.904a4 4 0 014-4h9.9a4 4 0 014 4v9.904c0 2.21-1.79 4-4 4h-9.9zm139.69-121.787a4 4 0 014-4h9.91c2.2 0 4 1.791 4 4v9.904c0 2.209-1.8 4-4 4h-9.91a4 4 0 01-4-4v-9.904zm53.94-97.979a4 4 0 01-4 4h-45.94a4 4 0 01-4-4v-9.904a4 4 0 014-4h9.91c2.2 0 4-1.791 4-4v-9.904a4 4 0 014-4h28.03a4 4 0 014 4v27.808zm68.08-139.691a4 4 0 014 4v28.037a4 4 0 01-4 4h-28.04a4 4 0 01-4-4v-28.037a4 4 0 014-4h28.04zm-175.96-75.846a4 4 0 01-4 4H1693.86c-2.2 0-4-1.791-4-4v-9.904c0-2.209 1.8-4 4-4H1721.67a4 4 0 004-4v-9.904a4 4 0 014-4h28.04a4 4 0 014 4v27.808zm215.77-179.958a4 4 0 01-4 4h-28.04a4 4 0 01-4-4V327.65a4 4 0 00-4-4h-100.11a4 4 0 01-4-4v-28.038a4 4 0 00-4-4h-64.08a4 4 0 00-4 4v28.038a4 4 0 01-4 4h-153.82a4 4 0 01-4-4v-9.904c0-2.21 1.79-4 4-4H1649.14a4 4 0 004-4v-9.904c0-2.21 1.79-4 4-4H1757.25a4 4 0 004-4v-28.038a4 4 0 014-4h64.08a4 4 0 014 4v28.038a4 4 0 004 4H1937.44c2.21 0 4 1.79 4 4v27.808a4 4 0 004 4h28.04a4 4 0 014 4v27.808zm0-175.614c0-.064-.05-.115-.12-.115h-31.92a4 4 0 01-4-4v-27.808a4 4 0 00-4-4h-28.04a4 4 0 00-4 4v28.037c0 2.21-1.79 4-4 4h-28.04c-2.21 0-4-1.79-4-4v-28.037a4 4 0 014-4h28.04a4 4 0 004-4v-28.038a4 4 0 014-4h28.04a4 4 0 014 4v28.038a4 4 0 004 4h64.07a4 4 0 014 4v28.037c0 2.21-1.79 4-4 4h-31.92a.113.113 0 01-.11-.114zm107.88-4.115a4 4 0 01-4 4h-28.04a4 4 0 01-4-4v-27.808a4 4 0 014-4h28.04a4 4 0 014 4v27.808zm399.5-31.808a4 4 0 01-4-4v-28.038a4 4 0 014-4h28.03a4 4 0 014 4v28.038a4 4 0 01-4 4h-28.03zM1474.1 36.038h32.04c2.2 0 4 1.79 4 4v28.037a4 4 0 004 4h28.03a4 4 0 014 4v27.808a4 4 0 01-4 4h-64.07a4 4 0 01-4-4V75.846a4 4 0 00-4-4h-28.04a4 4 0 01-4-4V40.038a4 4 0 014-4h32.04zm-215.77 39.808a4 4 0 014-4h28.04a4 4 0 004-4V40.038a4 4 0 014-4H1398.48a4 4 0 014 4v28.037a4 4 0 01-4 4H1298.37a4 4 0 00-4 4v27.808a4 4 0 01-4 4h-28.04a4 4 0 01-4-4V75.846zm-71.84 179.728a4 4 0 014-4H1290.6a4 4 0 014 4v28.038a4 4 0 01-4 4h-100.11a4 4 0 01-4-4v-28.038zm219.76 139.921a4 4 0 01-4-4v-28.037a4 4 0 014-4h28.04a4 4 0 014 4v28.037a4 4 0 01-4 4h-28.04zM934.911 754.953v-32.038a4 4 0 014-4h100.109c2.21 0 4-1.79 4-4v-28.037a4 4 0 014-4h136.15a4 4 0 004-4v-27.579c0-2.209 1.8-4 4-4h100.12a4 4 0 004-4v-28.037a4 4 0 014-4H1399.4a4 4 0 014 4v28.037a4 4 0 01-4 4h-100.11a4 4 0 00-4 4v28.038a4 4 0 01-4 4h-100.12c-2.2 0-4 1.791-4 4v28.038a4 4 0 01-4 4H1047.02c-2.21 0-4 1.79-4 4v28.037a4 4 0 01-4 4H935.37a.459.459 0 01-.459-.459zm467.339 76.075a4 4 0 014-4h45.94a4 4 0 014 4v9.904a4 4 0 01-4 4h-9.9a4 4 0 00-4 4v9.904a4 4 0 01-4 4h-28.04a4 4 0 01-4-4v-27.808zm107.89 143.691a4 4 0 014-4h45.94a4 4 0 014 4v9.905a4 4 0 01-4 4h-9.91c-2.21 0-4 1.79-4 4v9.906c0 2.21-1.79 4-4 4h-28.03c-2.21 0-4-1.79-4-4v-27.811zm-67.85 139.921c-2.21 0-4-1.79-4-4v-28.04c0-2.21 1.79-4 4-4h28.04c2.21 0 4 1.79 4 4v28.04c0 2.21-1.79 4-4 4h-28.04zm139.69 71.73c0 .06-.05.12-.11.12h-31.93c-2.21 0-4-1.79-4-4v-28.04c0-2.21 1.79-4 4-4h28.04c2.21 0 4 1.79 4 4v9.9c0 2.21 1.79 4 4 4h9.91c2.2 0 4 1.79 4 4v9.91c0 2.21-1.8 4-4 4h-13.79c-.07 0-.12.05-.12.11zm36.04-13.79c0-2.21 1.79-4 4-4h9.9c2.21 0 4 1.79 4 4v9.91c0 2.21-1.79 4-4 4h-9.9c-2.21 0-4-1.79-4-4v-9.91zm215.77-61.94c0 2.21-1.8 4-4 4h-45.95c-2.21 0-4-1.79-4-4v-9.9c0-2.21 1.79-4 4-4h9.91c2.21 0 4-1.79 4-4v-9.91c0-2.21 1.79-4 4-4h28.04c2.2 0 4 1.79 4 4v27.81zm-72.08-143.921c0 2.21-1.79 4-4 4h-45.94c-2.21 0-4-1.79-4-4v-9.904a4 4 0 014-4h9.9c2.21 0 4-1.79 4-4v-9.904a4 4 0 014-4h28.04a4 4 0 014 4v27.808zm215.77-107.883a4 4 0 01-4 4h-63.85a4 4 0 01-4-4v-9.904a4 4 0 014-4H1937.44a4 4 0 004-4v-9.904a4 4 0 014-4h28.04a4 4 0 014 4v27.808zm107.88-71.845a4 4 0 01-4 4h-64.08c-2.2 0-4-1.791-4-4v-28.038a4 4 0 00-4-4H1909.17a4 4 0 01-4-4v-28.038a4 4 0 014-4h100.11a4 4 0 014 4v28.038c0 2.209 1.8 4 4 4h64.08a4 4 0 014 4v28.038z"/></g></g><defs><linearGradient id="prefix__paint0_linear" x1="0" y1="0" x2="1012.42" y2="999.923" gradientUnits="userSpaceOnUse"><stop stop-color="#0069FF"/><stop offset="1" stop-color="#0248FF"/></linearGradient><clipPath id="prefix__clip0"><path fill="#fff" d="M0 0h1600v405H0z"/></clipPath></defs></svg>