<?xml version="1.0" encoding="utf-8"?>
<!-- Generator: Adobe Illustrator 23.0.4, SVG Export Plug-In . SVG Version: 6.00 Build 0)  -->
<svg version="1.1" id="Layer_1" xmlns="http://www.w3.org/2000/svg" xmlns:xlink="http://www.w3.org/1999/xlink" x="0px" y="0px"
	 viewBox="0 0 32 32" style="enable-background:new 0 0 32 32;" xml:space="preserve">
<style type="text/css">
	.st0{fill:#006AFF;}
</style>
<path class="st0" d="M16.8,17.7l-5,4.9c-0.6,0.6-0.6,1.8,0,2.4c0.3,0.3,0.7,0.5,1.2,0.5s0.9-0.2,1.2-0.5l7.8-7.8
	c0.1-0.1,0.2-0.2,0.2-0.3c0.1-0.1,0.1-0.2,0.2-0.2v-0.1c0-0.1,0.1-0.2,0.1-0.2c0.1-0.2,0.1-0.5,0-0.6c0-0.1,0-0.2-0.1-0.2v-0.1
	c0-0.1-0.1-0.2-0.1-0.2L22.4,15l-0.2-0.2l-7.8-7.8c-0.3-0.3-0.7-0.5-1.2-0.5s-0.9,0.2-1.2,0.5s-0.5,0.7-0.5,1.2s0.2,0.9,0.5,1.2
	l5,4.9l1.5,1.7C18.3,15.8,16.8,17.7,16.8,17.7z"/>
</svg>
